<svg xmlns="http://www.w3.org/2000/svg" width="256" height="256" viewBox="0 0 100 100"><rect width="100" height="100" rx="20" fill="#7d6ee7"></rect><path fill="#fff" d="M18.65 59.43L18.65 59.43Q18.50 59.58 18.08 59.70Q17.66 59.82 17.15 59.82L17.15 59.82Q16.58 59.82 16.13 59.66Q15.68 59.49 15.53 59.16L15.53 59.16Q15.14 58.38 14.62 57.15Q14.09 55.92 13.51 54.41Q12.92 52.89 12.31 51.21Q11.69 49.53 11.12 47.88Q10.55 46.23 10.04 44.69Q9.53 43.14 9.17 41.91L9.17 41.91Q9.35 41.67 9.71 41.46Q10.07 41.25 10.52 41.25L10.52 41.25Q11.09 41.25 11.36 41.52Q11.63 41.80 11.81 42.33L11.81 42.33Q13.16 46.27 14.39 49.92Q15.62 53.58 17.09 57.36L17.09 57.36L17.21 57.36Q17.87 55.66 18.58 53.72Q19.28 51.78 19.96 49.73Q20.63 47.67 21.28 45.57Q21.92 43.47 22.43 41.46L22.43 41.46Q22.82 41.25 23.45 41.25L23.45 41.25Q23.99 41.25 24.32 41.52Q24.65 41.80 24.65 42.33L24.65 42.33Q24.65 42.78 24.30 44.03Q23.96 45.27 23.42 46.92Q22.88 48.57 22.21 50.46Q21.53 52.35 20.87 54.09Q20.21 55.83 19.61 57.27Q19.01 58.71 18.65 59.43ZM30.53 46.77L30.53 59.61Q30.38 59.67 30.08 59.75Q29.78 59.82 29.42 59.82L29.42 59.82Q28.13 59.82 28.13 58.74L28.13 58.74L28.13 45.88Q28.28 45.81 28.59 45.74Q28.91 45.66 29.27 45.66L29.27 45.66Q30.53 45.66 30.53 46.77L30.53 46.77ZM27.77 41.44L27.77 41.44Q27.77 40.80 28.21 40.37Q28.64 39.94 29.33 39.94L29.33 39.94Q30.02 39.94 30.44 40.37Q30.86 40.80 30.86 41.44L30.86 41.44Q30.86 42.06 30.44 42.50Q30.02 42.94 29.33 42.94L29.33 42.94Q28.64 42.94 28.21 42.50Q27.77 42.06 27.77 41.44ZM37.67 59.61L37.67 59.61Q37.52 59.67 37.22 59.75Q36.92 59.82 36.56 59.82L36.56 59.82Q35.27 59.82 35.27 58.74L35.27 58.74L35.27 40.23Q35.42 40.17 35.73 40.10Q36.05 40.02 36.41 40.02L36.41 40.02Q37.67 40.02 37.67 41.10L37.67 41.10L37.67 51.91L44.24 45.55Q44.96 45.57 45.37 45.89Q45.77 46.20 45.77 46.71L45.77 46.71Q45.77 47.13 45.50 47.45Q45.23 47.77 44.78 48.18L44.78 48.18L39.95 52.41L46.64 58.41Q46.58 59.07 46.23 59.46Q45.89 59.85 45.32 59.85L45.32 59.85Q44.87 59.85 44.50 59.63Q44.12 59.40 43.73 58.98L43.73 58.98L37.67 52.89L37.67 59.61ZM60.77 52.86L51.53 54.16Q52.34 58.08 56.69 58.08L56.69 58.08Q57.95 58.08 58.97 57.66Q59.99 57.24 60.59 56.77L60.59 56.77Q61.31 57.18 61.31 57.90L61.31 57.90Q61.31 58.32 60.94 58.71Q60.56 59.10 59.91 59.40Q59.27 59.70 58.41 59.88Q57.56 60.06 56.57 60.06L56.57 60.06Q53.09 60.06 51.06 58.17Q49.04 56.28 49.04 52.66L49.04 52.66Q49.04 50.94 49.53 49.61Q50.03 48.27 50.91 47.34Q51.80 46.41 53.03 45.92Q54.26 45.42 55.70 45.42L55.70 45.42Q57.05 45.42 58.19 45.88Q59.33 46.32 60.16 47.15Q60.98 47.97 61.45 49.10Q61.91 50.22 61.91 51.57L61.91 51.57Q61.91 52.23 61.61 52.52Q61.31 52.80 60.77 52.86L60.77 52.86ZM55.67 47.38L55.67 47.38Q53.84 47.38 52.64 48.65Q51.44 49.92 51.38 52.29L51.38 52.29L59.63 51.16Q59.48 49.50 58.48 48.44Q57.47 47.38 55.67 47.38ZM75.17 55.98L75.17 55.98Q75.17 57.90 73.76 58.98Q72.35 60.06 69.68 60.06L69.68 60.06Q68.54 60.06 67.58 59.87Q66.62 59.67 65.94 59.36Q65.27 59.04 64.89 58.64Q64.52 58.23 64.52 57.81L64.52 57.81Q64.52 57.45 64.72 57.13Q64.91 56.79 65.30 56.55L65.30 56.55Q66.11 57.15 67.19 57.62Q68.27 58.08 69.65 58.08L69.65 58.08Q72.77 58.08 72.77 55.98L72.77 55.98Q72.77 54.27 70.70 53.77L70.70 53.77L68.21 53.10Q66.38 52.63 65.54 51.71Q64.70 50.80 64.70 49.35L64.70 49.35Q64.70 48.57 65.02 47.85Q65.33 47.13 65.99 46.59Q66.65 46.05 67.63 45.74Q68.60 45.42 69.92 45.42L69.92 45.42Q72.02 45.42 73.31 46.04Q74.60 46.66 74.60 47.46L74.60 47.46Q74.60 47.85 74.41 48.16Q74.21 48.45 73.88 48.60L73.88 48.60Q73.34 48.24 72.35 47.82Q71.36 47.41 70.01 47.41L70.01 47.41Q68.66 47.41 67.86 47.91Q67.07 48.42 67.07 49.35L67.07 49.35Q67.07 50.05 67.52 50.52Q67.97 51.00 69.02 51.24L69.02 51.24L71.09 51.75Q73.13 52.27 74.15 53.27Q75.17 54.27 75.17 55.98ZM81.26 59.61L81.26 59.61Q81.11 59.67 80.81 59.75Q80.51 59.82 80.15 59.82L80.15 59.82Q78.86 59.82 78.86 58.74L78.86 58.74L78.86 40.23Q79.01 40.17 79.33 40.10Q79.64 40.02 80 40.02L80 40.02Q81.26 40.02 81.26 41.10L81.26 41.10L81.26 46.50Q81.98 46.08 82.95 45.75Q83.93 45.42 85.16 45.42L85.16 45.42Q86.42 45.42 87.45 45.75Q88.49 46.08 89.24 46.76Q89.99 47.43 90.41 48.47Q90.83 49.50 90.83 50.88L90.83 50.88L90.83 59.61Q90.68 59.67 90.36 59.75Q90.05 59.82 89.72 59.82L89.72 59.82Q88.43 59.82 88.43 58.74L88.43 58.74L88.43 50.94Q88.43 49.14 87.44 48.27Q86.45 47.41 84.83 47.41L84.83 47.41Q83.78 47.41 82.86 47.78Q81.95 48.16 81.26 48.69L81.26 48.69L81.26 59.61Z"></path></svg>